<svg width="16" height="16" viewBox="0 0 16 16" fill="none" xmlns="http://www.w3.org/2000/svg">
<g clip-path="url(#clip0_46_3766)">
<path d="M7.99988 10.3602C6.10231 10.3602 4.56592 9.29081 4.56592 7.96998V2.39024C4.56592 1.06942 6.10231 0 7.99988 0C9.89745 0 11.4338 1.06942 11.4338 2.39024V7.96998C11.4338 9.29081 9.89745 10.3602 7.99988 10.3602V10.3602Z" fill="#4285F4"/>
<path d="M9.14828 13.0769H6.85718V16H9.14828V13.0769Z" fill="#34A853"/>
<path d="M13.7358 7.99997C13.7305 10.1988 11.159 11.9887 8 11.9887C6.41509 11.9887 4.97574 11.5384 3.93531 10.8105L2.33423 11.9249C3.78436 12.9343 5.78436 13.5609 8 13.5609C12.4151 13.5609 15.9946 11.0694 16 7.99622H13.7358V7.99997Z" fill="#EA4335"/>
<path d="M3.93531 10.8105C2.90566 10.0901 2.26415 9.09568 2.26415 8H0C0 9.53096 0.894879 10.9193 2.33423 11.925L3.93531 10.8105Z" fill="#FBBC05"/>
</g>
<defs>
<clipPath id="clip0_46_3766">
<rect width="16" height="16" fill="white"/>
</clipPath>
</defs>
</svg>
