<svg width="72" height="72" viewBox="0 0 72 72" fill="none" xmlns="http://www.w3.org/2000/svg">
<circle cx="36" cy="36" r="36" fill="#F47F12"/>
<path d="M20.6719 39.1719V23.25H24.5781V39.1719C24.5781 40.6823 24.2552 41.9688 23.6094 43.0312C22.9635 44.0938 22.0833 44.9062 20.9688 45.4688C19.8542 46.0312 18.5885 46.3125 17.1719 46.3125C15.724 46.3125 14.4375 46.0677 13.3125 45.5781C12.1979 45.0885 11.3229 44.3385 10.6875 43.3281C10.0521 42.3177 9.73438 41.0365 9.73438 39.4844H13.6719C13.6719 40.3802 13.8125 41.1042 14.0938 41.6562C14.3854 42.1979 14.7917 42.5938 15.3125 42.8438C15.8438 43.0833 16.4635 43.2031 17.1719 43.2031C17.849 43.2031 18.4479 43.0521 18.9688 42.75C19.5 42.4375 19.9167 41.9844 20.2188 41.3906C20.5208 40.7865 20.6719 40.0469 20.6719 39.1719ZM32.2875 23.25H35.7875L42.3656 40.7969L48.9281 23.25H52.4281L43.7406 46H40.9594L32.2875 23.25ZM30.6938 23.25H34.0219L34.6 38.4375V46H30.6938V23.25ZM50.6938 23.25H54.0375V46H50.1156V38.4375L50.6938 23.25Z" fill="#F8F8F8"/>
</svg>
