<svg width="80" height="80" viewBox="0 0 80 80" fill="none" xmlns="http://www.w3.org/2000/svg">
<path d="M47.1401 40.94C47.1801 40.64 47.2001 40.33 47.2001 40C47.2001 39.68 47.1801 39.36 47.1301 39.06L49.1601 37.48C49.3401 37.34 49.3901 37.07 49.2801 36.87L47.3601 33.55C47.2401 33.33 46.9901 33.26 46.7701 33.33L44.3801 34.29C43.8801 33.91 43.3501 33.59 42.7601 33.35L42.4001 30.81C42.3601 30.57 42.1601 30.4 41.9201 30.4H38.0801C37.8401 30.4 37.6501 30.57 37.6101 30.81L37.2501 33.35C36.6601 33.59 36.1201 33.92 35.6301 34.29L33.2401 33.33C33.0201 33.25 32.7701 33.33 32.6501 33.55L30.7401 36.87C30.6201 37.08 30.6601 37.34 30.8601 37.48L32.8901 39.06C32.8401 39.36 32.8001 39.69 32.8001 40C32.8001 40.31 32.8201 40.64 32.8701 40.94L30.8401 42.52C30.6601 42.66 30.6101 42.93 30.7201 43.13L32.6401 46.45C32.7601 46.67 33.0101 46.74 33.2301 46.67L35.6201 45.71C36.1201 46.09 36.6501 46.41 37.2401 46.65L37.6001 49.19C37.6501 49.43 37.8401 49.6 38.0801 49.6H41.9201C42.1601 49.6 42.3601 49.43 42.3901 49.19L42.7501 46.65C43.3401 46.41 43.8801 46.09 44.3701 45.71L46.7601 46.67C46.9801 46.75 47.2301 46.67 47.3501 46.45L49.2701 43.13C49.3901 42.91 49.3401 42.66 49.1501 42.52L47.1401 40.94ZM40.0001 43.6C38.0201 43.6 36.4001 41.98 36.4001 40C36.4001 38.02 38.0201 36.4 40.0001 36.4C41.9801 36.4 43.6001 38.02 43.6001 40C43.6001 41.98 41.9801 43.6 40.0001 43.6Z" fill="#37408C"/>
</svg>
